<?xml version="1.0" encoding="UTF-8"?><svg id="_лой_1" xmlns="http://www.w3.org/2000/svg" viewBox="0 0 334.76226 83.52453"><defs><style>.cls-1{fill:#fff;}.cls-2{fill:#4d4d4d;}.cls-3{fill:#fed784;}.cls-4{fill:#144361;}.cls-5{fill:#8ad3f3;}</style></defs><g><path class="cls-5" d="M102.83873,11.93646h-16.1777c-1.95379,0-3.53765-1.58386-3.53765-3.53765v-1.31905c0-1.95379,1.58386-3.53765,3.53765-3.53765h49.51962c1.95379,0,3.53765,1.58386,3.53765,3.53765v1.31905c0,1.95379-1.58386,3.53765-3.53765,3.53765h-16.28852c-1.95379,0-3.53765,1.58386-3.53765,3.53765v60.97066c0,1.95379-1.58386,3.53765-3.53765,3.53765h-2.9028c-1.95379,0-3.53765-1.58386-3.53765-3.53765V15.47411c0-1.95379-1.58386-3.53765-3.53765-3.53765Z"/><path class="cls-5" d="M121.10301,38.69911c0-1.00041,.73607-1.84597,1.72747-1.97989,2.41814-.32665,5.3844-.57091,8.9638-.57091,5.50463,0,9.53927,1.27972,12.09871,3.58635,2.36918,2.0486,3.77661,5.18405,3.77661,9.02582,0,3.90432-1.15201,6.97722-3.32832,9.21869-2.94518,3.13545-7.74609,4.73575-13.18817,4.73575-.81559,0-1.59992-.015-2.33831-.06796-1.15819-.08307-2.14202,.82785-2.14202,1.98901v12.98428c0,1.10286-.89404,1.9969-1.9969,1.9969h-1.57599c-1.10286,0-1.9969-.89404-1.9969-1.9969V38.69911Zm5.56979,17.418c0,1.00157,.73942,1.86777,1.73472,1.9797,.85293,.09592,1.81103,.13777,2.87332,.13777,6.7218,0,10.81899-3.26577,10.81899-9.21869,0-5.6975-4.03204-8.44981-10.17783-8.44981-1.34609,0-2.51526,.05897-3.45375,.15488-1.02093,.10434-1.79545,.96141-1.79545,1.98766v13.40848Z"/><path class="cls-5" d="M154.33411,36.3086c1.10286,0,1.9969,.89404,1.9969,1.9969v16.18505c0,6.84951-.12771,12.48185-.51345,18.2445l.12771,.06255c2.17891-4.48033,4.86607-9.15353,8.00412-14.27502l13.36729-21.27931c.36538-.58165,1.00405-.93468,1.69094-.93468h2.46909c1.10286,0,1.9969,.89404,1.9969,1.9969v39.15446c0,1.10286-.89404,1.9969-1.9969,1.9969h-1.25541c-1.10286,0-1.9969-.89404-1.9969-1.9969v-16.37532c0-6.97983,.06516-12.10132,.51345-17.54339l-.19287-.06255c-2.11376,4.73575-5.05633,9.72953-8.00152,14.53305l-12.9213,20.51254c-.36563,.58044-1.00361,.93257-1.68962,.93257h-2.85385c-1.10286,0-1.9969-.89404-1.9969-1.9969V38.3055c0-1.10286,.89404-1.9969,1.9969-1.9969h1.25541Z"/><path class="cls-3" d="M191.91931,35.95674c.77572,0,1.48125,.44924,1.80941,1.15213l8.03962,17.22009c1.08946,2.56205,2.11376,5.05894,3.13805,7.61838h.12771c.76888-2.23886,1.6003-4.73575,2.68715-7.80865l6.24205-16.87773c.28989-.78382,1.0372-1.30422,1.87291-1.30422h1.52712c1.41825,0,2.38446,1.4371,1.84925,2.75048l-7.90498,19.39835c-2.36918,5.76266-5.05633,12.35674-8.06668,16.38878-2.81747,3.52119-5.95292,5.31436-9.79469,5.31436-.37814,0-.72863-.00922-1.05268-.02766-1.14664-.06524-1.98783-1.10471-1.84345-2.2441l.09139-.72121c.12741-1.00547,.98429-1.76066,1.99768-1.745,.09521,.00147,.19389,.00221,.29621,.00221,4.48033-.06516,7.10493-4.35522,8.44981-7.42812,.44829-.95914,.32058-1.6003-.19287-2.6246l-12.91893-26.18301c-.6548-1.3271,.31093-2.88048,1.79078-2.88048h1.85512Z"/><path class="cls-3" d="M258.28958,60.50602c-.32058-6.01547-.70372-13.25072-.63856-18.62764h-.19287c-1.47259,5.05633-3.26577,10.43325-5.44207,16.38878l-7.14019,19.62026c-.2871,.78891-1.03697,1.314-1.8765,1.314h-1.39571c-.85545,0-1.61588-.54489-1.89089-1.35493l-6.51721-19.1962c-2.0486-6.08063-3.77661-11.65042-4.99378-16.77191h-.12771c-.12771,5.37692-.44829,12.61216-.83403,19.07593l-1.0354,16.62973c-.06554,1.05263-.93837,1.87281-1.99304,1.87281h-1.29438c-1.15753,0-2.07256-.98103-1.99206-2.13576l2.72934-39.15446c.07294-1.04643,.9431-1.85804,1.99206-1.85804h3.82939c.84673,0,1.60141,.53401,1.88313,1.3325l6.89283,19.53661c1.79317,5.31436,3.26577,10.05272,4.35262,14.53305h.19287c1.08946-4.35262,2.6246-9.09098,4.54549-14.53305l7.20235-19.56214c.28911-.78525,1.03714-1.30696,1.87392-1.30696h3.83591c1.05461,0,1.92741,.82009,1.99303,1.87266l2.4408,39.15446c.07166,1.14949-.8413,2.12114-1.99303,2.12114h-1.43142c-1.05833,0-1.93286-.8257-1.99361-1.88229l-.98125-17.06854Z"/><path class="cls-5" d="M305.11929,6.79775h0c0,1.63186,1.20477,3.0384,2.82577,3.22624,13.82209,1.60168,26.8172,10.78871,26.8172,31.50668,0,20.74095-13.01897,29.46698-26.9427,31.16998-1.61247,.19722-2.80651,1.59981-2.80651,3.2243v.34288c0,1.79804-1.4576,3.25564-3.25564,3.25564h-2.25498c-1.79804,0-3.25564-1.4576-3.25564-3.25564v-.36215c0-1.65332-1.24188-3.02106-2.88193-3.23011-13.71968-1.74876-26.76104-9.94412-26.76104-30.72423,0-21.46247,14.09386-30.09261,26.98291-31.86481,1.63296-.22453,2.86828-1.58281,2.86828-3.23113v-.05764c0-1.79804,1.4576-3.25564,3.25564-3.25564h2.15299c1.79804,0,3.25564,1.4576,3.25564,3.25564Zm-8.76626,13.34615c0-2.07917-1.93182-3.66841-3.9532-3.18159-8.15133,1.96314-16.40085,8.87102-16.40085,24.56835,0,14.57684,7.5381,21.84894,16.28122,24.20369,2.056,.55374,4.07283-1.02756,4.07283-3.15683V20.1439Zm8.66003,42.5042c0,2.10536,1.97417,3.68272,4.01634,3.17081,8.64642-2.1674,16.33771-9.275,16.33771-24.39023,0-15.71137-7.74489-22.65141-16.42798-24.53288-2.02045-.43779-3.92606,1.12467-3.92606,3.192V62.6481Z"/></g><g><circle class="cls-3" cx="41.76226" cy="41.76226" r="41.76226"/><path class="cls-1" d="M57.55445,35.78901v.00024c-.01749,.2521-.04226,.50372-.07456,.75534-.05124,.39977-.12119,.79857-.21033,1.19567-.7721,3.4391-2.62693,6.53211-4.62215,9.66082-2.4761,3.88259-5.03648,7.89755-5.38987,12.77932-.10055,1.389-.2385,3.29144-1.68166,3.97732-.50931,.24215-1.07618,.26327-1.5765,.28197l-.52242,.01992c-.87192,.03303-1.74384,.06606-2.616,.09909l-.00923,.00049-.00923-.00049c-.87216-.03303-1.74408-.06606-2.616-.09909l-.52266-.01992c-.50008-.0187-1.06695-.03983-1.57626-.28197-1.44316-.68588-1.58111-2.58831-1.68166-3.97732-.35338-4.88178-2.91376-8.89673-5.38987-12.77932-1.99521-3.12871-3.85005-6.22171-4.62214-9.66082-.10371-.46194-.18167-.92632-.23389-1.39167-.02744-.24215-.04785-.48454-.0612-.72717v-.00024c-.10857-1.96073,.23462-3.92218,1.0191-5.76754,.51926-1.22239,1.21996-2.3588,2.08216-3.37814,.87702-1.03683,1.90608-1.93377,3.05876-2.66603,1.49222-.94818,3.20254-1.67656,5.08288-2.16523,1.6445-.42746,3.48136-.68661,5.45982-.7704l.0102-.00049,.0102,.00049c1.97846,.08379,3.81532,.34294,5.45982,.7704,1.88034,.48866,3.59066,1.21704,5.08288,2.16523,1.15268,.73227,2.18174,1.6292,3.05876,2.66603,.8622,1.01934,1.5629,2.15575,2.08216,3.37814,.80683,1.89806,1.14685,3.91902,1.0089,5.93537Z"/><path class="cls-4" d="M56.54554,29.85364c-.51926-1.22239-1.21996-2.3588-2.08216-3.37814-.87702-1.03683-1.90608-1.93377-3.05876-2.66603-1.49222-.94818-3.20254-1.67656-5.08288-2.16523-1.6445-.42746-3.48136-.68661-5.45982-.7704l-.0102-.00049-.0102,.00049c-1.97846,.08379-3.81532,.34294-5.45982,.7704-1.88034,.48866-3.59066,1.21704-5.08288,2.16523-1.15268,.73227-2.18174,1.6292-3.05876,2.66603-.8622,1.01934-1.5629,2.15575-2.08216,3.37814-.78449,1.84536-1.12767,3.80681-1.0191,5.76754v.00024c.01336,.24263,.03376,.48502,.0612,.72717,.05222,.46535,.13018,.92972,.23389,1.39167,.7721,3.4391,2.62693,6.53211,4.62214,9.66082,2.47611,3.88259,5.03649,7.89755,5.38987,12.77932,.10055,1.389,.2385,3.29144,1.68166,3.97732,.50931,.24215,1.07618,.26327,1.57626,.28197l.52266,.01992c.87192,.03303,1.74384,.06606,2.616,.09909l.00923,.00049,.00923-.00049c.87216-.03303,1.74408-.06606,2.616-.09909l.52242-.01992c.50032-.0187,1.06719-.03983,1.5765-.28197,1.44316-.68588,1.58111-2.58831,1.68166-3.97732,.35338-4.88178,2.91376-8.89673,5.38987-12.77932,1.99522-3.12871,3.85005-6.22171,4.62215-9.66082,.08913-.3971,.15908-.7959,.21033-1.19567,.0323-.25161,.05708-.50324,.07456-.75534v-.00024c.13795-2.01634-.20207-4.0373-1.0089-5.93537Zm.54307,5.41586c-.00583,.2249-.01773,.45005-.03619,.67519-.04591,.56371-.13091,1.12791-.25696,1.68919-.75461,3.36235-2.58637,6.41504-4.55754,9.50586-2.50865,3.93384-5.10255,8.00126-5.46468,13.00568-.09229,1.26975-.21834,3.00898-1.40576,3.57366-.4192,.19891-.93288,.21834-1.38633,.23534l-.52266,.01967c-.86876,.03303-1.73777,.06582-2.60677,.09885-.86901-.03303-1.73801-.06582-2.60677-.09885l-.52291-.01967c-.4532-.017-.96688-.03643-1.38608-.23534-1.18742-.56468-1.31347-2.30391-1.40576-3.57366-.36212-5.00442-2.95602-9.07184-5.46467-13.00568-1.97117-3.09082-3.80293-6.14351-4.55754-9.50586-.13722-.6118-.22612-1.227-.26838-1.84123-.0153-.21932-.02429-.43863-.02769-.65746-.06606-4.31928,2.14482-8.49988,5.94727-10.91575,2.74861-1.74602,6.11509-2.68158,10.29253-2.85985,2.08872,.08913,3.97464,.36771,5.68205,.84205,1.70741,.47433,3.2363,1.14467,4.61049,2.0178,3.8413,2.44089,6.05875,6.68366,5.94435,11.05006Z"/><path class="cls-4" d="M31.22569,42.34807c5.72604,4.52805,13.84226,4.21546,19.28869-.60702,.20614-.18154,.44607-.40078,.64183-.59302l.12684-.12142c-.05321,.07197-.1559,.21111-.20995,.28175-.21027,.27252-.45037,.55628-.68269,.80669-4.96379,5.37802-14.12484,5.64581-19.16471,.23302h0Z"/><path class="cls-4" d="M40.56638,34.1848c-.07068-1.70838-.76918-3.30407-1.98574-4.52062-1.28456-1.28456-2.99221-1.99181-4.80867-1.99181s-3.52411,.70725-4.80867,1.99181c-1.1556,1.1556-1.8439,2.65365-1.97044,4.26512-.01311,.16685-.0204,.33492-.02113,.50396l-.00024,.03959c0,1.81646,.70725,3.52435,1.99181,4.80867,1.28456,1.28456,2.99221,1.99181,4.80867,1.99181s3.52411-.70725,4.80867-1.99181c1.23793-1.23769,1.9396-2.86859,1.9889-4.61097,.00194-.06582,.00291-.13164,.00291-.1977,0-.09642-.00194-.19236-.00607-.28805Zm-6.79441,6.60278c-3.48185,0-6.31474-2.83289-6.31474-6.31474,0-.04202,.00049-.08403,.00146-.12605,.00316-.16564,.01263-.32958,.02866-.49182,.31137-3.19307,3.01116-5.69686,6.28462-5.69686,3.38518,0,6.15711,2.67793,6.30818,6.02669,.00437,.09545,.00656,.19139,.00656,.28805,0,.06606-.00097,.13212-.00316,.1977-.10468,3.39077-2.89579,6.11704-6.31158,6.11704Z"/><path class="cls-4" d="M54.7381,33.96815c-.11852-1.62629-.80877-3.13915-1.9736-4.30398-1.28456-1.28456-2.99221-1.99181-4.80867-1.99181s-3.52411,.70725-4.80867,1.99181c-1.21656,1.21656-1.91507,2.81224-1.98574,4.52062-.00413,.09569-.00607,.19163-.00607,.28805,0,.06606,.00097,.13188,.00291,.1977,.0493,1.74238,.75097,3.37328,1.9889,4.61097,1.28456,1.28456,2.99221,1.99181,4.80867,1.99181s3.52411-.70725,4.80867-1.99181c1.28359-1.28335,1.9906-2.98954,1.99181-4.8043v-.00437c0-.16928-.00607-.3376-.01822-.50469Zm-.46753,.50469c0,3.48185-2.83289,6.31474-6.31474,6.31474-3.41579,0-6.2069-2.72627-6.31158-6.11704-.00219-.06558-.00316-.13164-.00316-.1977,0-.09666,.00219-.1926,.00656-.28805,.15107-3.34875,2.92299-6.02669,6.30818-6.02669,3.28026,0,5.98443,2.51424,6.28656,5.71678,.01554,.16345,.02477,.32885,.0272,.49571,.00073,.034,.00097,.068,.00097,.10225Z"/><circle class="cls-5" cx="34.34272" cy="35.67507" r="3.70384"/><circle class="cls-4" cx="34.34272" cy="35.67507" r="1.59083"/><path class="cls-4" d="M44.28677,35.27081c2.0917-1.92104,4.41763-2.44972,7.10574-1.51441-1.81547-.44426-3.71715-.29419-5.25217,.82953-.49036,.34574-.93335,.75673-1.34022,1.20195-.13588,.14872-.36659,.15912-.5153,.02325-.15881-.14343-.15765-.39802,.00195-.54032h0Z"/><path class="cls-4" d="M27.48735,33.85497c-.01603,.16224-.0255,.32618-.02866,.49182-.1637,.01919-.32618,.04833-.48696,.08646-.88358,.20911-1.71202,.69389-2.33208,1.35937-.16175,.17366-.30918,.35946-.4396,.55594-.02744-.24215-.04785-.48453-.0612-.72716v-.00024c.14548-.17171,.30359-.3342,.47312-.48599,.22587-.2028,.47215-.38714,.73591-.54987,.51465-.31744,1.07253-.53918,1.64499-.656,.16394-.03352,.32885-.05829,.49449-.07432Z"/><path class="cls-4" d="M57.55448,35.78898v.00024c-.01749,.2521-.04226,.50372-.07456,.75534-.12411-.21155-.26765-.41216-.42746-.5999-.59359-.69899-1.41159-1.22044-2.29614-1.46745-.1603-.04469-.32278-.08039-.48672-.10662-.00243-.16686-.01166-.33225-.0272-.49571,.16637,.02235,.33176,.05343,.4957,.09326,.5115,.12411,1.00866,.33201,1.47109,.61714,.32059,.19794,.61544,.4277,.87945,.68418,.16807,.16272,.32375,.33638,.46583,.51951Z"/><path class="cls-2" d="M41.6411,34.47285c0,.06606,.00097,.13212,.00316,.1977h-1.56071c.00219-.06558,.00316-.13164,.00316-.1977,0-.09666-.00219-.1926-.00656-.28805h1.56751c-.00437,.09545-.00656,.19139-.00656,.28805Z"/><path class="cls-4" d="M46.91147,65.71816v3.69558c0,.25502-.01992,.50542-.05853,.74951-.01287,.0816-.02793,.16272-.04493,.24287-.11464,.54161-.32108,1.04922-.60257,1.50582-.05076,.08282-.10419,.1637-.16005,.24287-.86269,1.22652-2.28933,2.028-3.90299,2.028h-2.55698c-1.61366,0-3.0403-.80149-3.90299-2.028-.05586-.07918-.10929-.16006-.16005-.24287-.28149-.45661-.48794-.96421-.60257-1.50582-.017-.08015-.03206-.16127-.04493-.24287-.03862-.24409-.05853-.49449-.05853-.74951v-3.69558c0-.77113,.62492-1.39604,1.39604-1.39604h9.30306c.77113,0,1.39604,.62492,1.39604,1.39604Z"/><rect class="cls-1" x="34.81633" y="66.44727" width="12.09515" height=".24287"/><rect class="cls-1" x="34.81633" y="68.41455" width="12.09515" height=".24287"/><path class="cls-1" d="M46.85294,70.16325c-.01287,.0816-.02793,.16272-.04493,.24287h-11.88822c-.017-.08015-.03206-.16127-.04493-.24287h11.97809Z"/><path class="cls-1" d="M46.20544,71.91194c-.05076,.08282-.10419,.1637-.16005,.24287h-10.36297c-.05586-.07918-.10929-.16006-.16005-.24287h10.68307Z"/><path class="cls-4" d="M32.42091,17.10732h15.79304c.3133,0,.56765,.25436,.56765,.56765h0c0,2.51508-2.04192,4.557-4.55699,4.557h-7.81436c-2.51507,0-4.55699-2.04192-4.55699-4.55699h0c0-.3133,.25436-.56766,.56765-.56766Z"/><polygon class="cls-1" points="40.47251 20.82415 26.58287 15.59941 40.20068 10.69186 53.27052 15.09701 54.74126 15.59271 40.47251 20.82415"/><path class="cls-4" d="M40.47196,20.95369l-14.2405-5.35672,13.96788-5.0337,14.90786,5.02464-14.63524,5.36578Zm-13.53768-5.35184l13.53877,5.09276,13.9023-5.09708-14.17333-4.77707-13.26774,4.78139Z"/><polygon class="cls-1" points="55.14465 14.52098 55.14465 15.58938 51.61107 15.58938 51.61107 14.18071 54.17193 14.18071 55.14465 14.52098"/><polygon class="cls-1" points="29.4852 14.22929 29.4852 15.63796 26.2183 15.63796 26.2183 14.46099 26.8573 14.22929 29.4852 14.22929"/><polygon class="cls-4" points="55.14465 14.52098 53.4336 15.15197 52.24788 15.58938 40.33853 19.98177 29.21318 15.63796 27.8526 15.10679 26.2183 14.46852 26.2081 14.46463 26.2183 14.46099 26.8573 14.22929 40.33853 9.34168 54.17193 14.18071 55.14465 14.52098"/><path class="cls-5" d="M52.86037,25.45409c-.05455,0-.10941-.01829-.15471-.05579-.23026-.19058-.47417-.3801-.71005-.56337-.69397-.53919-1.41157-1.09673-1.96482-1.81226-.63259-.81816-.81002-1.76633-.9816-2.68329-.09743-.5206-.19817-1.05895-.38243-1.55793l-.02315-.06309c-.07341-.20057-.19624-.53626-.3493-.83762-.22928-.45143-.37627-.5299-.41585-.54319-.01677-.00564-7.27939-2.44555-7.27939-2.44555-.12715-.04272-.1956-.18042-.15289-.30758,.0427-.12715,.18044-.19566,.30758-.15289,0,0,7.26272,2.43995,7.27944,2.44557,.45477,.15277,.78137,.89499,1.06656,1.67433l.02267,.06175c.1985,.53753,.30307,1.0964,.40421,1.63685,.16842,.89996,.32748,1.75,.88844,2.47552,.51561,.66683,1.20849,1.20518,1.87855,1.7258,.23879,.18554,.48573,.37739,.72175,.57275,.10334,.08553,.11776,.23863,.03223,.34196-.04801,.05803-.11736,.08803-.18723,.08803Z"/><path class="cls-4" d="M56.48212,30.56731c.19243,.12585,.40287,.24466,.6329,.25123,.29032,.00786,.70363-.59079,.89154-.77059,.28121-.26906,.57042-.52977,.86718-.78157,.11137-.09449,.57543-.39477,.52816-.58067-.0474-.18563-.52328-.20733-.67175-.21532-.70258-.03782-1.31501-.43205-1.93334-.7678-.94022-.51055-1.56038-1.07918-2.53074-2.05504-.53961-.54267-.5079-.39116-1.098,.15712-.37918,.35231-.06247,.52883,.13677,1.03463,.56051,1.42294,1.91772,2.9043,3.17727,3.72802Z"/><rect class="cls-4" x="52.30241" y="24.64127" width="2.00916" height="2.00916" rx="1.00458" ry="1.00458" transform="translate(-3.8323 40.95748) rotate(-40.6932)"/></g></svg>