<?xml version="1.0" encoding="UTF-8"?><svg id="_лой_1" xmlns="http://www.w3.org/2000/svg" viewBox="0 0 293.6433 68.25118"><defs><style>.cls-1{fill:#fed784;}.cls-2{fill:#8ad3f3;}</style></defs><path class="cls-2" d="M56.51161,5.23105v3.15125c0,2.88903-3.4239,5.23105-7.64749,5.23105h-.06144c-4.22359,0-7.64749,2.34202-7.64749,5.23105V62.79366c0,2.88903-3.4239,5.23105-7.64749,5.23105h-10.56523c-4.22359,0-7.64749-2.34202-7.64749-5.23105V18.84439c0-2.88903-3.4239-5.23105-7.64749-5.23105h-.00002C3.4239,13.61335,0,11.27133,0,8.3823v-3.15125C0,2.34202,3.4239,0,7.64749,0H48.86412c4.22359,0,7.64749,2.34202,7.64749,5.23105Z"/><path class="cls-1" d="M41.86843,20.54445c-.09067-1.1721,1.22493-2.22973,2.93847-2.36228l16.06193-1.24249c5.18287-.40093,9.18948-.43094,12.01983-.09005,2.83035,.3409,4.98677,.98275,6.46927,1.92555,1.4825,.9428,2.53014,2.14214,3.14294,3.59802,.61279,1.45588,1.04036,3.7503,1.28272,6.88327l.33722,4.35936c.24714,3.1948-.05482,5.56121-.90587,7.09922-.85105,1.53802-2.53446,2.79829-5.05024,3.78083s-5.85284,1.63465-10.01119,1.95632l-2.0049,.15509c-1.71354,.13255-3.02914,1.19018-2.93847,2.36228l1.23102,15.91361c.09067,1.1721-1.22493,2.22973-2.93847,2.36228l-12.82369,.992c-1.71354,.13255-3.17614-.71016-3.26681-1.88226l-3.54376-45.81075Zm23.98831,5.16472c-2.01841-.63801-4.39108,.70924-4.27085,2.26351l.79519,10.27958c.54399-.02135,1.01185-.04717,1.40357-.07747,1.74771-.1352,2.93784-.52273,3.57039-1.16261s.87708-1.88734,.73358-3.74238l-.31809-4.11202c-.13234-1.71076-.61017-2.79349-1.43349-3.24817-.13722-.07578-.29732-.14259-.48031-.20043Z"/><path class="cls-2" d="M117.40187,67.70088h-.00002c-4.39911-.25689-7.82284-2.9045-7.64712-5.91358l1.01417-17.3669-9.32346,18.4389c-1.13912,2.25282-4.33762,3.65648-7.86287,3.45062l-2.79206-.16305c-4.39911-.25689-7.82284-2.90449-7.64712-5.91358l2.29228-39.25354c.17572-3.00909,3.88435-5.24018,8.28346-4.98329h.00002c4.39911,.25689,7.82284,2.9045,7.64712,5.91358l-1.00333,17.18116,10.00032-18.3354c1.19326-2.18782,4.34418-3.53369,7.80047-3.33185l2.16675,.12653c4.39911,.25689,7.82284,2.90449,7.64712,5.91358l-2.29228,39.25354c-.17572,3.00909-3.88435,5.24018-8.28346,4.98329Z"/><path class="cls-1" d="M165.71226,15.75122c1.66694-.09559,3.02265,.81851,2.91054,1.96243l-3.07511,31.37516c-.51785,5.28931-1.18569,9.01865-1.99976,11.18782s-2.53778,3.7848-5.17114,4.84692c-2.63336,1.06212-7.02773,1.76966-13.17934,2.1224l-9.44267,.54146c-.96055,.05508-1.742-.4435-1.76636-1.10124-.04398-1.18777-.16446-2.37073-.23504-3.55683-.02872-.48273-.32501-1.29135,.3204-1.66987,.53265-.31239,1.54846-.16675,2.19118-.20602,.89203-.0545,2.5222-.07717,3.18549-.58898,.5724-.31237,.84204-.7575,.8089-1.3354-.00237-.04128-.44552-1.43431-1.32945-4.17909l-11.44821-34.93802c-.37995-1.15956,.88045-2.31902,2.62997-2.41934l10.73683-.61567c1.40654-.08065,2.63643,.56378,2.87595,1.50695l6.63915,26.14307c.09348,.3681,.88855,.30401,.90222-.07273l.95879-26.42809c.03683-1.01521,1.21673-1.8713,2.69599-1.95612l10.79167-.61882Z"/><path class="cls-2" d="M228.02966,21.71785l-1.95139,42.96458c-.09016,1.98506-2.51582,3.48742-5.41786,3.35562l-6.15908-.27974c-2.90111-.13176-5.18025-1.84681-5.09144-3.83129l1.21118-27.06634c.01196-.26723-.55854-.31919-.62246-.0567l-6.6545,27.32436c-.43074,1.76868-2.71735,2.9998-5.3496,2.88024l-2.67364-.12143c-2.61143-.11861-4.76702-1.53102-5.06061-3.31587l-4.49503-27.32707c-.04369-.26561-.61243-.26355-.62469,.00227l-1.22282,26.52275c-.09149,1.98434-2.5167,3.4857-5.41779,3.35393l-6.15913-.27974c-2.90204-.13181-5.18153-1.84787-5.09137-3.83293l1.95139-42.96458c.09016-1.98507,2.51582-3.48744,5.41788-3.35566l14.92878,.67795c2.59156,.11769,4.74437,1.5061,5.05441,3.27634,.40512,2.31313,.8094,4.87745,1.21286,7.69198l1.63129,9.88098c.07867,.47653,1.07761,.51616,1.1876,.04711l4.02326-17.15638c.41713-1.77879,2.71047-3.02138,5.35463-2.90129l14.92677,.67795c2.90204,.13181,5.18153,1.84787,5.09137,3.83293Z"/><path class="cls-1" d="M293.47764,39.60121c.25646,3.27702,.21516,5.65457-.1239,7.13265-.47629,2.0487-1.67599,3.95703-3.59908,5.72496-2.99871,2.74378-8.91223,4.46112-17.74057,5.15202l-.40677,.03183c-1.62248,.12697-2.86735,1.12959-2.7805,2.2394l.33388,4.26631c.08685,1.10981-1.15802,2.11242-2.7805,2.2394l-13.19732,1.03281c-1.62248,.12697-3.00817-.66977-3.09502-1.77959l-.33388-4.26631c-.08685-1.10981-1.47254-1.90656-3.09502-1.77958h0c-8.85847,.69326-14.98223-.08206-18.37126-2.32594-2.17471-1.44725-3.65666-3.14571-4.44586-5.09537-.56487-1.40734-.97553-3.74952-1.23199-7.02654l-.06774-.86563c-.25646-3.27702-.21516-5.65457,.1239-7.13265,.47629-2.0487,1.67599-3.95703,3.59908-5.72496,2.97341-2.67959,8.90442-4.36719,17.79303-5.06281l.04034-.00319c1.6048-.12856,2.82605-1.13856,2.74014-2.23644l-.35563-4.54431c-.08685-1.10981,1.15802-2.11242,2.7805-2.2394l13.19732-1.03281c1.62248-.12697,3.00817,.66977,3.09502,1.77959l.35539,4.54118c.0851,1.08739,1.42172,1.88612,3.01289,1.78534,.18152-.0115,.34457-.0229,.48916-.03422,8.8886-.69561,14.99487,.04996,18.31881,2.23673,2.17471,1.44725,3.65666,3.14571,4.44586,5.09537,.56487,1.40734,.97553,3.74952,1.23199,7.02654l.06774,.86563Zm-44.4906,11.97334l-1.38873-17.74536-1.58187,.1238c-1.41615,.11083-2.57353,.71981-3.47214,1.82696-.89861,1.10714-1.28097,2.51604-1.1471,4.22668l.50565,6.46129c.13226,1.69003,.72834,3.01199,1.78824,3.96586,1.0599,.95387,2.29792,1.3754,3.71408,1.26457l1.58187-.1238Zm25.68313-7.67097l-.50565-6.46129c-.13387-1.71064-.73076-3.0429-1.79066-3.99678-1.0599-.95387-2.31299-1.37422-3.75927-1.26103l-1.94344,.15209,1.38873,17.74536,1.94344-.15209c1.44628-.11318,2.61873-.72335,3.51733-1.83049,.89861-1.10714,1.28178-2.50573,1.14952-4.19577Z"/></svg>